HIERARCHY
ROOT Hips
{
	OFFSET -3.958830 18.904000 13.208200
	CHANNELS 6 Xposition Yposition Zposition Zrotation Yrotation Xrotation 
	JOINT LHipJoint
	{
		OFFSET 0.000000 0.000000 0.000000
		CHANNELS 3 Zrotation Yrotation Xrotation
		JOINT LeftUpLeg
		{
			OFFSET 1.800000 -1.400000 0.085000
			CHANNELS 3 Zrotation Yrotation Xrotation
			JOINT LeftLeg
			{
				OFFSET 2.215000 -6.000000 0.000000
				CHANNELS 3 Zrotation Yrotation Xrotation
				JOINT LeftFoot
				{
					OFFSET 2.500000 -6.900000 0.000000
					CHANNELS 3 Zrotation Yrotation Xrotation
					JOINT LeftToeBase
					{
						OFFSET 0.200000 -0.500000 1.950000
						CHANNELS 3 Zrotation Yrotation Xrotation
						End Site
						{
							OFFSET 0.000000 0.000000 0.000000
						}
					}
				}
			}
		}
	}
	JOINT RHipJoint
	{
		OFFSET 0.000000 0.000000 0.000000
		CHANNELS 3 Zrotation Yrotation Xrotation
		JOINT RightUpLeg
		{
			OFFSET -1.800000 -1.400000 0.085000
			CHANNELS 3 Zrotation Yrotation Xrotation
			JOINT RightLeg
			{
				OFFSET -2.215000 -6.000000 0.000000
				CHANNELS 3 Zrotation Yrotation Xrotation
				JOINT RightFoot
				{
					OFFSET -2.500000 -6.900000 0.000000
					CHANNELS 3 Zrotation Yrotation Xrotation
					JOINT RightToeBase
					{
						OFFSET -0.200000 -0.500000 1.950000
						CHANNELS 3 Zrotation Yrotation Xrotation
						End Site
						{
							OFFSET 0.000000 0.000000 0.000000
						}
					}
				}
			}
		}
	}
	JOINT LowerBack
	{
		OFFSET 0.000000 0.000000 0.000000
		CHANNELS 3 Zrotation Yrotation Xrotation
		JOINT Spine
		{
			OFFSET -0.087000 1.940000 -0.288900
			CHANNELS 3 Zrotation Yrotation Xrotation
			JOINT Spine1
			{
				OFFSET 0.000000 1.950000 0.060000
				CHANNELS 3 Zrotation Yrotation Xrotation
				JOINT Neck
				{
					OFFSET 0.000000 0.000000 0.000000
					CHANNELS 3 Zrotation Yrotation Xrotation
					JOINT Neck1
					{
						OFFSET 0.000000 1.600000 0.340000
						CHANNELS 3 Zrotation Yrotation Xrotation
						JOINT Head
						{
							OFFSET 0.000000 1.667000 -0.240000
							CHANNELS 3 Zrotation Yrotation Xrotation
							End Site
							{
								OFFSET 0.000000 0.000000 0.000000
							}
						}
					}
				}
				JOINT LeftShoulder
				{
					OFFSET 0.000000 0.000000 0.000000
					CHANNELS 3 Zrotation Yrotation Xrotation
					JOINT LeftArm
					{
						OFFSET 2.700000 1.550000 -0.730000
						CHANNELS 3 Zrotation Yrotation Xrotation
						JOINT LeftForeArm
						{
							OFFSET 5.450000 0.000000 0.000000
							CHANNELS 3 Zrotation Yrotation Xrotation
							JOINT LeftHand
							{
								OFFSET 3.450000 0.000000 0.000000
								CHANNELS 3 Zrotation Yrotation Xrotation
								JOINT LeftHandIndex1
								{
									OFFSET 0.750000 0.000000 0.000000
									CHANNELS 3 Zrotation Yrotation Xrotation
									End Site
									{
										OFFSET 0.000000 0.000000 0.000000
									}
								}
							}
						}
					}
				}
				JOINT RightShoulder
				{
					OFFSET 0.000000 0.000000 0.000000
					CHANNELS 3 Zrotation Yrotation Xrotation
					JOINT RightArm
					{
						OFFSET -2.700000 1.550000 -0.730000
						CHANNELS 3 Zrotation Yrotation Xrotation
						JOINT RightForeArm
						{
							OFFSET -5.450000 0.000000 0.000000
							CHANNELS 3 Zrotation Yrotation Xrotation
							JOINT RightHand
							{
								OFFSET -3.450000 0.000000 0.000000
								CHANNELS 3 Zrotation Yrotation Xrotation
								JOINT RightHandIndex1
								{
									OFFSET -0.750000 0.000000 0.000000
									CHANNELS 3 Zrotation Yrotation Xrotation
									End Site
									{
										OFFSET 0.000000 0.000000 0.000000
									}
								}
							}
						}
					}
				}
			}
		}
	}
}
MOTION
Frames: 9
Frame Time: 0.016667
0.302060 17.565620 -3.980640 -157.066484 33.113130 169.436800 -15.234117 11.710763 3.037424 25.280708 -0.579417 8.333066 -14.052394 7.579471 2.813911 0.388815 6.728861 2.309790 0.512840 0.106830 0.365520 18.368911 -8.222819 5.838464 -35.138520 -2.908779 -34.308907 111.166781 -43.977379 16.715562 -2.658634 -10.596464 0.982571 0.018320 -0.114430 -0.069170 -4.004404 -2.332607 -9.780307 24.308569 -11.936617 32.809388 -6.622656 -8.297959 25.413145 4.228509 4.501911 -26.388176 6.386427 -23.362907 53.271492 29.476820 -29.408550 -29.834300 -8.103685 -49.371259 14.238606 -13.018308 -4.158025 -23.629024 55.992190 -85.055290 -52.906373 -2.755276 2.443486 0.775820 -0.486520 0.136790 0.123450 -1.354902 50.349440 12.516057 8.261221 24.602558 -33.885975 -4.779380 73.907051 -14.015095 1.316064 -1.650490 -0.123380 0.234140 -0.135190 -0.102270 
0.258610 17.553630 -4.022130 -151.784355 43.172800 179.043212 -15.381123 11.575721 2.994046 26.725574 -0.882976 5.549998 -13.918991 7.511153 2.904363 0.359975 6.633542 2.279589 0.498450 0.076880 0.450670 18.290352 -7.714840 6.165646 -34.243599 -2.354129 -38.378852 113.599973 -40.007298 13.832484 -2.696473 -10.493620 1.018927 -0.048900 -0.206490 0.002820 -3.849258 -2.668497 -10.003411 25.689436 -11.726679 33.692517 -5.614434 -7.014385 16.377988 3.735601 5.787754 -24.356900 9.607027 -24.448621 53.240110 25.537410 -28.036190 -28.322530 -12.434553 -46.727588 15.400831 -14.298679 -5.143485 -18.605911 32.285247 -83.659208 -33.933471 -2.496291 2.995856 0.803050 -0.474600 0.207710 0.060090 3.340333 46.946700 8.783305 11.395563 31.621260 -23.712348 -2.157696 65.765272 -6.858852 1.734484 -1.525794 -0.069340 0.137860 -0.144710 -0.156160 
0.244960 17.593460 -4.087160 -143.965600 52.383826 -170.037418 -15.387194 11.435246 2.965054 27.643390 -1.138760 4.722791 -13.387448 7.398914 2.703815 0.219988 6.662725 2.262576 0.616740 0.206170 0.552990 18.325843 -7.620600 6.153775 -32.968067 -1.524569 -41.432865 111.065837 -40.587335 15.134504 -2.762201 -10.643702 0.966922 0.075030 -0.199240 -0.000550 -3.745655 -2.600677 -10.099856 25.654538 -10.613344 32.694454 -3.477536 -6.981933 15.750666 4.594531 6.544864 -22.563229 12.622098 -24.218716 51.270365 21.999740 -24.612230 -29.249300 -12.095857 -45.258721 14.722399 -14.182651 -6.391857 -17.643519 36.822139 -81.160517 -35.462196 -2.568532 2.811315 0.845560 -0.462490 0.227560 0.088270 2.313663 45.386537 6.682975 13.559189 36.945240 -19.105108 -8.120133 57.532096 -7.014062 1.849546 -1.262755 -0.112820 0.222960 -0.179820 -0.196100 
0.262080 17.622710 -4.145290 -133.493438 58.673032 -156.114789 -15.084840 10.988767 2.638453 27.619283 -1.218717 3.945584 -11.434225 6.862813 1.946534 0.140193 6.350747 2.383204 0.682790 0.368980 0.497450 18.753427 -7.427475 6.545173 -36.186153 -2.297052 -43.135013 111.676627 -36.017982 12.859206 -2.667043 -10.332320 1.080445 0.191420 -0.114560 -0.013930 -4.014102 -1.724538 -10.427922 26.693559 -10.130050 29.147480 -2.494433 -7.862514 17.985419 5.148397 6.218717 -21.664240 13.316092 -22.328698 50.012799 19.630070 -22.717840 -27.814900 -9.361340 -44.392813 14.197024 -15.455714 -7.980898 -17.499128 42.205600 -73.171103 -34.049549 -2.632249 2.787541 0.732960 -0.392680 0.186670 0.158020 0.089445 44.168322 5.656930 15.743272 44.165149 -11.767481 -22.505159 40.675631 -9.282594 2.273260 -0.866200 -0.089620 0.294000 -0.197980 -0.127200 
0.241300 17.646800 -4.214250 -117.427426 63.457947 -138.121441 -14.956681 11.435800 2.711522 28.495389 -1.278550 2.480556 -10.585776 7.065180 3.271237 0.089090 6.383730 2.328807 0.688940 0.337640 0.576700 18.863649 -7.234818 6.271854 -36.081179 -1.233534 -43.335684 100.339556 -39.034135 18.934037 -2.679258 -10.639205 0.945573 0.161390 -0.197720 0.017260 -3.551777 -2.051325 -10.419499 28.689493 -10.722997 30.254576 -3.158717 -7.300278 16.337243 5.129264 6.606844 -22.415684 13.096524 -21.346728 50.126252 16.347420 -20.945260 -27.525160 -11.084315 -45.277584 14.740967 -12.620045 -8.015969 -16.134339 37.923517 -63.798085 -24.939784 -2.770518 3.059315 0.797860 -0.412710 0.234960 0.118760 0.553109 44.728760 5.370605 15.069473 43.242912 -12.242668 -20.975561 42.637850 -8.693915 2.157046 -0.901683 -0.089230 0.240790 -0.206520 -0.193810 
0.245710 17.677460 -4.263740 -101.950625 64.582180 -120.653791 -15.215062 12.071680 2.677290 29.695761 -0.910834 -0.599769 -9.087965 7.595944 7.075585 0.029815 6.290215 2.255704 0.742880 0.323400 0.714250 18.564020 -6.806542 6.376549 -35.959486 1.039553 -42.349013 93.093434 -33.887753 19.223911 -2.596223 -10.353156 0.933155 0.111230 -0.378920 0.087360 -2.974513 -3.098174 -10.518678 29.492625 -10.787457 32.837117 -3.565523 -5.608770 12.495931 6.140838 7.513408 -23.783647 14.576809 -22.079683 50.070408 12.305560 -20.215770 -27.320170 -13.854434 -45.802680 16.470290 -11.151877 -6.624718 -14.209166 34.817535 -56.860926 -19.461868 -2.824803 3.400774 0.857690 -0.484910 0.318160 0.069170 0.215397 46.647223 2.473066 12.657838 43.249926 -7.472400 -18.260915 33.265323 -5.170428 2.539979 -0.932966 -0.019710 0.073780 -0.260000 -0.268450 
0.231490 17.703670 -4.297440 -80.744076 64.355800 -98.437971 -15.556594 12.463723 2.543442 30.500984 -0.355328 -1.496767 -8.449485 8.394732 10.949802 0.141034 6.329672 2.218548 0.770630 0.363630 0.791330 18.231264 -6.361552 6.695232 -36.869722 3.682756 -43.520956 89.042159 -27.540891 17.844182 -2.507157 -9.822360 1.075734 0.059050 -0.500610 0.075220 -2.650459 -3.988455 -10.658309 30.041305 -10.581805 37.359114 -5.244143 -2.604692 8.791262 6.657142 7.981513 -25.286537 14.347559 -21.790719 52.310172 11.425830 -19.443950 -27.872090 -15.769989 -46.390683 17.307811 -9.016166 -8.015554 -12.653729 34.941621 -45.358797 -14.669118 -2.938305 3.548457 0.875420 -0.564010 0.411900 0.078080 0.655858 48.682401 1.027920 11.691901 43.168811 -5.452710 -17.676810 28.587342 -4.014609 2.916725 -0.840298 0.047050 0.006520 -0.360740 -0.268400 
0.293220 17.680210 -4.358610 -63.399063 59.330794 -78.166615 -15.762258 12.184914 2.438266 32.027687 0.263667 -2.360201 -8.541713 8.916287 12.255881 0.182155 6.484156 2.143642 0.697030 0.258490 0.758900 18.143911 -5.874117 7.256771 -42.231778 4.511435 -43.567178 91.903327 -18.289745 11.081661 -2.279252 -8.847221 1.370054 -0.030520 -0.523690 0.067150 -2.815553 -3.743289 -11.254965 34.677725 -11.227507 37.738854 -8.709923 -0.149313 6.278943 6.841375 7.774161 -27.640869 12.497612 -21.260696 55.566079 10.225460 -20.507280 -25.094350 -14.888639 -45.925501 17.473067 -8.920238 -8.401726 -11.195562 33.877180 -37.660902 -11.466826 -2.936260 3.675648 0.874540 -0.573760 0.398340 0.057120 -0.482231 48.825274 2.479338 11.777601 43.707997 -4.611768 -20.497632 24.673834 -4.258436 3.307664 -0.597592 0.053030 -0.043030 -0.344420 -0.274430 
0.337030 17.637680 -4.428000 -53.412737 55.126475 -67.242479 -15.787762 12.866563 2.356224 30.587941 1.207441 -3.516020 -6.332639 8.853973 14.953539 0.356147 6.045123 2.321777 0.659480 0.270890 0.687930 18.011506 -6.245560 7.195797 -43.896947 6.819082 -41.722164 83.071493 -20.378441 15.432993 -2.225184 -9.087362 1.313387 -0.116460 -0.564360 0.036070 -2.527382 -5.233717 -10.997816 30.553462 -17.085209 42.094209 -10.019331 -5.613338 13.469717 7.811390 8.268108 -36.214406 0.349239 -15.236117 58.521760 11.118080 -23.310660 -22.680140 -7.164116 -29.853326 5.978737 -6.301513 -11.146031 -11.548966 32.984035 -29.275488 -8.318281 -2.916688 3.964834 0.761490 -0.620980 0.417400 0.107720 -13.070827 30.742763 42.534495 -74.120610 40.080817 -169.313168 11.815699 22.208065 -2.735674 5.305543 -2.249329 0.162290 -0.123910 -0.429690 -0.168600 
